# xmcd
#
# Track frame offsets:
# 150
# 23866
# 43412
# 64242
# 86695
# 109295
# 131938
# 151904
# 176107
# 200844
# 219828
# 241932
# 263247
# 284317
# 302972
#
# Disc length: 4260 seconds
#
# Revision: 1
# Processed by: cddbd v1.5PL3 Copyright (c) Steve Scherf et al.
# Submitted via: CedeCatalogueitor 2.6.0.0 http://personales.ya.com/cdcatalogueitor
#
DISCID=e710a20f
DTITLE=Lisa Stanfield - Lisa Stanfield
DYEAR=1900
DGENRE=
TTITLE0=Never Gonna Fall
TTITLE1=The Real Thing
TTITLE2=I'm Leaving
TTITLE3=Suzanne
TTITLE4=Never, Never Gonna Give You Up
TTITLE5=Don't Cry For Me
TTITLE6=The Line
TTITLE7=The Very Thought Of You
TTITLE8=You Know How You Love Me
TTITLE9=Cried My Last Tear Last Night
TTITLE10=Honest
TTITLE11=Somewhere In Time
TTITLE12=Got Me Missing You
TTITLE13=Footsteps
TTITLE14=Bonus Mix - People Hold On (Bootleg Mix)
EXTD=
EXTT0=
EXTT1=
EXTT2=
EXTT3=
EXTT4=
EXTT5=
EXTT6=
EXTT7=
EXTT8=
EXTT9=
EXTT10=
EXTT11=
EXTT12=
EXTT13=
EXTT14=
PLAYORDER=
